<?xml version="1.0" encoding="UTF-8" standalone="no"?>
<svg
   xmlns:dc="http://purl.org/dc/elements/1.1/"
   xmlns:cc="http://creativecommons.org/ns#"
   xmlns:rdf="http://www.w3.org/1999/02/22-rdf-syntax-ns#"
   xmlns:svg="http://www.w3.org/2000/svg"
   xmlns="http://www.w3.org/2000/svg"
   viewBox="0 0 370.78134 346.29333"
   height="346.29333"
   width="370.78134"
   xml:space="preserve"
   id="svg2"
   version="1.1"><metadata
     id="metadata8"><rdf:RDF><cc:Work
         rdf:about=""><dc:format>image/svg+xml</dc:format><dc:type
           rdf:resource="http://purl.org/dc/dcmitype/StillImage" /></cc:Work></rdf:RDF></metadata><defs
     id="defs6"><clipPath
       id="clipPath14"
       clipPathUnits="userSpaceOnUse"><path
         id="path12"
         d="M 138.21,251.84 H 416.296 V 511.56 H 138.21 Z" /></clipPath><clipPath
       id="clipPath24"
       clipPathUnits="userSpaceOnUse"><path
         id="path22"
         d="M 0,841.89 H 595.276 V 0 H 0 Z" /></clipPath><clipPath
       id="clipPath34"
       clipPathUnits="userSpaceOnUse"><path
         id="path32"
         d="M 34.799,22.46 H 351.496 V 841.889 H 34.799 Z" /></clipPath><clipPath
       id="clipPath52"
       clipPathUnits="userSpaceOnUse"><path
         id="path50"
         d="m 34.799,774.742 h 32.09 v 67.148 h -32.09 z" /></clipPath><clipPath
       id="clipPath208"
       clipPathUnits="userSpaceOnUse"><path
         id="path206"
         d="M 144.142,257.381 H 422.786 V 508.818 H 144.142 Z" /></clipPath></defs><g
     clip-path="url(#clipPath14)"
     transform="matrix(1.3333333,0,0,-1.3333333,-184.28,682.08)"
     id="g10"><g
       id="g16"><g
         id="g18"><g
           clip-path="url(#clipPath24)"
           id="g20"><g
             id="g26"><g
               id="g28"><g
                 clip-path="url(#clipPath34)"
                 id="g30"><g
                   transform="translate(286.5643,35.6796)"
                   id="g36"><path
                     id="path38"
                     style="fill:#253366;fill-opacity:1;fill-rule:nonzero;stroke:none"
                     d="M 0,0 C 0,7.301 5.918,13.219 13.219,13.219 20.52,13.219 26.438,7.301 26.438,0 26.438,-7.301 20.52,-13.219 13.219,-13.219 5.918,-13.219 0,-7.301 0,0" /></g></g></g><text
               id="text42"
               style="font-variant:normal;font-weight:normal;font-stretch:condensed;font-size:9px;font-family:D;-inkscape-font-specification:D-DINCondensed;writing-mode:lr-tb;fill:#181817;fill-opacity:1;fill-rule:nonzero;stroke:none"
               transform="matrix(1,0,0,-1,84.4965,788.0768)"><tspan
                 id="tspan40"
                 y="0"
                 x="0 5.4720001 9.243 13.041 16.802999 18.999001 22.77 24.434999 28.233 31.995001 35.828999 39.591 42.291 44.172001 47.943001 51.714001 53.379002 57.176998 60.875999 63.521999 67.221001 68.886002 71.082001 74.780998 76.445999 80.153999 83.528999 87.227997 89.424004 93.258003 96.957001 100.728 102.609 106.38 110.214 111.879 115.677 119.439 121.635 123.3 127.062 130.8447 133.54469 137.3157 140.0157 143.8497 147.6207 149.28571 153.08369 156.8457 158.5107 162.2097 166.00771 168.78059 172.5426 176.3766 180.17461 182.0556 185.4756 189.17461 191.01961 194.7816 196.44659 200.2446 204.00661 205.6716 209.4426 213.1416 215.8416 218.6145 222.3765 225.02431 228.7683 232.2963 233.9613 237.75929 241.5213 243.18629 246.9843 249.6321 253.3311 257.12909">Modelo genérico para la evaluación del entorno de aprendizaje de carreras de grado</tspan></text>
<path
               id="path44"
               style="fill:#253366;fill-opacity:1;fill-rule:nonzero;stroke:none"
               d="m 34.807,774.742 h 32.09 v 67.148 h -32.09 z" /><g
               id="g46"><g
                 clip-path="url(#clipPath52)"
                 id="g48"><g
                   transform="translate(34.7987,788.2172)"
                   id="g54"><path
                     id="path56"
                     style="fill:none;stroke:#f2a319;stroke-width:0.5;stroke-linecap:butt;stroke-linejoin:miter;stroke-miterlimit:10;stroke-dasharray:none;stroke-opacity:1"
                     d="m 0,0 c 8.803,0 16.036,7.379 16.036,16.359 v 23.83 L 10.029,35.735 V 16.359 C 10.029,10.761 5.487,6.128 0,6.128 c -5.487,0 -10.029,4.633 -10.029,10.231 v 19.376 l -6.008,4.454 V 16.359 C -16.037,7.379 -8.803,0 0,0 Z" /></g><g
                   transform="translate(53.329,830.2543)"
                   id="g58"><path
                     id="path60"
                     style="fill:none;stroke:#f2a319;stroke-width:0.5;stroke-linecap:butt;stroke-linejoin:miter;stroke-miterlimit:10;stroke-dasharray:none;stroke-opacity:1"
                     d="m 0,0 v -25.678 c 0,-10.385 -8.35,-18.904 -18.53,-18.904 -10.18,0 -18.531,8.519 -18.531,18.904 V 0 l -6.007,4.453 v -30.131 c 0,-13.768 11.042,-25.031 24.538,-25.031 13.495,0 24.537,11.263 24.537,25.031 V 4.453 Z" /></g><g
                   transform="translate(34.7982,816.0209)"
                   id="g62"><path
                     id="path64"
                     style="fill:none;stroke:#f2a319;stroke-width:0.5;stroke-linecap:butt;stroke-linejoin:miter;stroke-miterlimit:10;stroke-dasharray:none;stroke-opacity:1"
                     d="M 0,0 C 1.768,0 3.201,1.484 3.116,3.27 3.041,4.856 1.736,6.161 0.15,6.236 -1.635,6.32 -3.119,4.888 -3.119,3.12 -3.119,1.401 -1.718,0 0,0" /></g><g
                   transform="translate(36.1791,797.7607)"
                   id="g66"><path
                     id="path68"
                     style="fill:none;stroke:#f2a319;stroke-width:0.5;stroke-linecap:butt;stroke-linejoin:miter;stroke-miterlimit:10;stroke-dasharray:none;stroke-opacity:1"
                     d="m 0,0 h -0.327 v 15.069 l 3.053,2.237 V 2.727 C 2.726,1.221 1.506,0 0,0 Z" /></g></g></g></g></g></g></g><text
       id="text72"
       style="font-variant:normal;font-weight:bold;font-stretch:normal;font-size:12px;font-family:D-DIN-PRO;-inkscape-font-specification:D-DIN-PRO-Bold;writing-mode:lr-tb;fill:#ffffff;fill-opacity:1;fill-rule:nonzero;stroke:none"
       transform="matrix(1,0,0,-1,293.6558,31.4727)"><tspan
         id="tspan70"
         y="0"
         x="0 5.9159999">28</tspan></text>
<text
       id="text76"
       style="font-variant:normal;font-weight:normal;font-stretch:normal;font-size:12px;font-family:D-DIN-PRO;-inkscape-font-specification:D-DIN-PRO-Regular;writing-mode:lr-tb;fill:#231f20;fill-opacity:1;fill-rule:nonzero;stroke:none"
       transform="matrix(1,0,0,-1,85.0393,718.532)"><tspan
         id="tspan74"
         y="0"
         x="0 6.3839998 12.54 18.695999 24.851999 30.516001 36.599998 40.764 43.692001 49.872002 55.535999 60.444 66.683998 72.767998 76.931999 83.015999 87.924004 94.176003 100.56 103.488 109.572 113.736 118.644 124.8 128.196 133.104 139.34399 143.508 149.688 155.84399 162 167.664 173.84399 178.752 185.004 191.16 196.06799 202.224 208.608 214.272 220.42799 226.812 232.896 239.28 244.87199 250.95599 255.864 261.948 268.18799 272.35199 278.508 284.892 291.14401 294.07199 299.664 305.74799 308.57999 314.73599 319.64401 325.896 332.052 335.448 340.35599 346.51199 352.17599 356.37601 362.76001 369.01199 371.94 378.02399 384.40799 388.608 394.76401 396.828">necesarios para guiar el proceso de enseñanza aprendizaje del estudiante, </tspan></text>
<text
       id="text80"
       style="font-variant:normal;font-weight:normal;font-stretch:normal;font-size:12px;font-family:D-DIN-PRO;-inkscape-font-specification:D-DIN-PRO-Regular;writing-mode:lr-tb;fill:#231f20;fill-opacity:1;fill-rule:nonzero;stroke:none"
       transform="matrix(1,0,0,-1,85.0393,700.532)"><tspan
         id="tspan78"
         y="0"
         x="0 6.1560001 12.54 16.115999 22.271999 25.667999 29.243999 39.264 45.348 49.512001 55.667999 61.848 65.424004 71.676003 77.832001 81.407997 87.491997 90.888 97.043999 103.128 109.512 115.104 121.188 125.352 128.92799 132.32401 138.504 144.168 147.744 151.908 158.064 163.728 170.112 173.508 177.70799 183.79201 190.04401 196.224 201.888 205.464 211.716 217.87199 221.448 227.532 233.772 237.936 244.092 250.476 256.728 259.65601 265.24799 271.332 274.164 280.32001 283.896 290.14801 296.30399 303.15601 309.54001 312.46799 318.72 324.89999 330.564 334.14001 340.29599 346.67999 350.25601 356.41199 359.80801 363.384 369.63599 372.564 378.228 384.384 390.76801 396.828">en el marco de alcanzar los resultados de aprendizaje defnidos en el diseño </tspan></text>
<text
       id="text84"
       style="font-variant:normal;font-weight:normal;font-stretch:normal;font-size:12px;font-family:D-DIN-PRO;-inkscape-font-specification:D-DIN-PRO-Regular;writing-mode:lr-tb;fill:#231f20;fill-opacity:1;fill-rule:nonzero;stroke:none"
       transform="matrix(1,0,0,-1,85.0393,682.532)"><tspan
         id="tspan82"
         y="0"
         x="0 6.1560001 12.54 16.704 20.868 23.796 29.952 36.335999 39.731998 45.816002 49.236">curricular.</tspan></text>
<text
       id="text88"
       style="font-variant:normal;font-weight:normal;font-stretch:normal;font-size:12px;font-family:D-DIN-PRO;-inkscape-font-specification:D-DIN-PRO-Regular;writing-mode:lr-tb;fill:#231f20;fill-opacity:1;fill-rule:nonzero;stroke:none"
       transform="matrix(1,0,0,-1,121.0393,664.532)"><tspan
         id="tspan86"
         y="0"
         x="0 6.276 12.36 18.024 20.778 27.018 33.198002 36.594002 39.521999 43.722 46.650002 52.806 58.889999 64.554001 66.737999 69.490799 75.730797 79.894798 86.074799 92.230797 98.386803 104.6388 107.5668 117.5868 120.5148 126.6708 133.05479 137.25481 143.4348 149.0988 151.28281 154.0368 160.19279 165.8568 170.05679 174.22079 180.30479 184.50481 190.6608 196.9128 199.84081 205.9248 211.58881 214.3416 220.5936 226.7496 229.5036 235.1676 241.32359 247.57561 253.95959 256.8876 266.90759 269.8356 275.99161 282.37561 286.57559 292.75562 295.50839 300.89639 303.6492 309.80521 315.19321 321.27719 324.67319 331.05719 337.1412 343.29721 346.22519 352.40521 358.78922 360.85321">Las políticas, procedimientos, estrategias de seguimiento y evaluación, </tspan></text>
<text
       id="text92"
       style="font-variant:normal;font-weight:normal;font-stretch:normal;font-size:12px;font-family:D-DIN-PRO;-inkscape-font-specification:D-DIN-PRO-Regular;writing-mode:lr-tb;fill:#231f20;fill-opacity:1;fill-rule:nonzero;stroke:none"
       transform="matrix(1,0,0,-1,85.0393,646.532)"><tspan
         id="tspan90"
         y="0"
         x="0 6.0840001 11.748 14.676 19.691999 25.848 32.028 42.048 48.228001 53.243999 56.639999 62.723999 68.388 73.403999 79.487999 85.643997 91.800003 94.727997 100.908 107.292 113.448 119.112 124.128 130.38 136.536 141.552 151.57201 157.728 160.56 166.74001 170.90401 176.98801 182.004 188.16 194.34 200.724 204.924 207.85201 214.23599 220.62 226.70399 231.72 237.87601 244.25999 249.276 252.672 258.85199 264.51599 269.53201 275.772 279.936 286.116 292.272 298.42801 304.09201 310.272 315.936 320.952 327.20401 333.35999 338.37601 344.62799 350.784 356.448 360.64801 363.57599 369.75601 376.14001 381.15601 387.40799 393.564 396.84">así como las acciones de mejora continua en los procesos de gestión del </tspan></text>
<text
       id="text96"
       style="font-variant:normal;font-weight:normal;font-stretch:normal;font-size:12px;font-family:D-DIN-PRO;-inkscape-font-specification:D-DIN-PRO-Regular;writing-mode:lr-tb;fill:#231f20;fill-opacity:1;fill-rule:nonzero;stroke:none"
       transform="matrix(1,0,0,-1,85.0393,628.532)"><tspan
         id="tspan94"
         y="0"
         x="0 6.1560001 12.54 16.704 20.868 23.796 29.952 36.335999 39.731998 45.911999 49.200001 55.355999 61.740002 65.028 68.424004 74.508003 77.795998 83.952003 90.036003 94.199997 98.363998 104.52 108.684 114.768 118.056 123.72 129.87601 133.164 139.32001 144.70799 150.79201 154.188 160.57201 166.65601 169.944 176.028 179.31599 183.51601 187.67999 193.76401 199.15199 205.308 210.972 214.25999 220.51199 226.668 229.95599 233.35201 239.532 245.196 248.48399 251.412 257.79599 264.048 266.97601 273.13199 279.216 285.46799 291.64801 295.81201 301.96799 307.63199 310.07999 313.36801 320.41199 326.56799 330.73199 337.58401 340.98001 344.26801 350.51999 356.67599 359.96399 366.12 372.37201 376.53601 382.69199 388.35599 394.53601 396.86401">currículo en la carrera se evalúa a través de los indicadores: Perfl de egreso; </tspan></text>
<text
       id="text100"
       style="font-variant:normal;font-weight:normal;font-stretch:normal;font-size:12px;font-family:D-DIN-PRO;-inkscape-font-specification:D-DIN-PRO-Regular;writing-mode:lr-tb;fill:#231f20;fill-opacity:1;fill-rule:nonzero;stroke:none"
       transform="matrix(1,0,0,-1,85.0393,610.532)"><tspan
         id="tspan98"
         y="0"
         x="0 7.0440001 11.208 17.388 22.775999 28.931999 35.088001 39.287998 45.467999 54.035999 60.192001 66.575996 70.739998 74.903999 77.832001 83.987999 90.372002 93.767998 99.851997 104.016 106.464 115.032 124.188 130.272 133.668 137.064 143.14799 151.716 157.87199 164.256 168.42 172.584 175.51199 181.668 188.052 191.448 197.532 201.696 204.144 212.71201 219.384 224.772 228.168 231.564 237.64799 243.888 250.272 255.936 258.384 266.952 276.108 282.26401 286.46399 292.64401 298.896 305.07599 308.47198 314.65201 320.90399 323.832 329.91599 338.48401 343.87201 352.44 356.604 362.76001 368.91599 375.29999 379.46399 385.12799 391.30801 396.85199">Proyecto curricular; Malla curricular; Syllabus; Metodología y recursos </tspan></text>
<text
       id="text104"
       style="font-variant:normal;font-weight:normal;font-stretch:normal;font-size:12px;font-family:D-DIN-PRO;-inkscape-font-specification:D-DIN-PRO-Regular;writing-mode:lr-tb;fill:#231f20;fill-opacity:1;fill-rule:nonzero;stroke:none"
       transform="matrix(1,0,0,-1,85.0393,592.532)"><tspan
         id="tspan102"
         y="0"
         x="0 6.2519999 12.408 18.035999 24.120001 30.360001 34.523998 40.68 47.063999 53.316002 56.243999 61.835999 67.919998 70.751999 76.907997 79.356003 84.984001 91.667999 97.332001 103.488 109.644 116.028 122.112 126.276 129.20399 135.384 141.048 146.67599 152.92799 159.084 164.71201 170.952 175.116 181.2 187.356 191.556 194.48399 200.64 206.724 212.388 218.01601 222.06 228.24001 232.40401 242.424 248.508 252.70799 255.636 261.02399 267.108 272.772 275.22 280.84799 285.48001 287.664 293.29199 298.23599 304.392 310.548 316.93201 323.112 326.508 332.68799 338.94 341.86801 347.952 353.616 359.24399 365.48401 371.56799 375.73199 381.81601 387.444 393.60001 396.87601">de aprendizaje; Escenarios de prácticas formativas; y, Tecnologías para el </tspan></text>
<text
       id="text108"
       style="font-variant:normal;font-weight:normal;font-stretch:normal;font-size:12px;font-family:D-DIN-PRO;-inkscape-font-specification:D-DIN-PRO-Regular;writing-mode:lr-tb;fill:#231f20;fill-opacity:1;fill-rule:nonzero;stroke:none"
       transform="matrix(1,0,0,-1,85.0393,574.532)"><tspan
         id="tspan106"
         y="0"
         x="0 6.0840001 12.324 16.488001 22.643999 29.028 35.279999 38.208 43.799999 49.883999 52.716 58.872002 61.596001 66.984001 69.708 75.863998 82.043999 88.428001 94.608002 100.764 103.692 113.712 116.64 122.796 129.17999 133.38 139.56 142.284 145.86 150.84 157.77721 165.21719 168.7932 170.9772 173.7012 177.0972 183.27721 188.94119 191.66521 197.8212 204.2052 210.2892 213.6852 219.8412 225.5052 228.2292 233.8932 240.04919 242.77319 249.02521 255.1812 260.84521 267.00119 271.16519 274.0932 280.33319 286.4892 292.8732 295.5972 301.68121 304.40521 310.56119 316.74121 323.12521 327.3252 330.2532 336.63721 343.02121 349.10519 355.2612 358.18921 364.3692 370.7532">aprendizaje y conocimiento (TAC), los cuales se describen a continuación:</tspan></text>
<text
       id="text112"
       style="font-variant:normal;font-weight:bold;font-stretch:normal;font-size:12px;font-family:D-DIN-PRO;-inkscape-font-specification:D-DIN-PRO-Bold;writing-mode:lr-tb;fill:#231f20;fill-opacity:1;fill-rule:nonzero;stroke:none"
       transform="matrix(1,0,0,-1,85.0393,538.532)"><tspan
         id="tspan110"
         y="0"
         x="0 6.3720002 9.3839998 15.672 22.032 26.327999 32.459999 35.327999">Figura 6</tspan></text>
<text
       id="text116"
       style="font-style:italic;font-variant:normal;font-weight:normal;font-stretch:normal;font-size:12px;font-family:'DIN Pro Regular';-inkscape-font-specification:DINPro-Italic;writing-mode:lr-tb;fill:#231f20;fill-opacity:1;fill-rule:nonzero;stroke:none"
       transform="matrix(1,0,0,-1,85.0393,520.532)"><tspan
         id="tspan114"
         y="0"
         x="0 7.4039998 12.312 15.312 19.188 25.379999 30.288 33.287998 39.431999 42.383999 49.787998 56.327999 61.236 66.143997 69.143997 74.856003 81.396004 84.430801 90.574799">Criterio Currículo.</tspan></text>
<text
       id="text120"
       style="font-variant:normal;font-weight:bold;font-stretch:normal;font-size:12px;font-family:D-DIN-PRO;-inkscape-font-specification:D-DIN-PRO-Bold;writing-mode:lr-tb;fill:#231f20;fill-opacity:1;fill-rule:nonzero;stroke:none"
       transform="matrix(1,0,0,-1,121.0393,232.532)"><tspan
         id="tspan118"
         y="0"
         x="0 3.2520001 9.6120005 15.9 18.912001 25.091999 31.224001 37.512001 43.751999 48.167999 51.035999 55.332001 58.032001 60.779999 67.704002 74.028 78.444 85.463997 89.028 91.716003 98.003998 104.328 107.016 113.34 119.628 123.804 130.12801 135.936">Indicador 1. Perfl de egreso</tspan></text>
<text
       id="text124"
       style="font-variant:normal;font-weight:normal;font-stretch:normal;font-size:12px;font-family:D-DIN-PRO;-inkscape-font-specification:D-DIN-PRO-Regular;writing-mode:lr-tb;fill:#231f20;fill-opacity:1;fill-rule:nonzero;stroke:none"
       transform="matrix(1,0,0,-1,121.0394,196.532)"><tspan
         id="tspan122"
         y="0"
         x="0 7.4400001 13.62 17.784 21.948 28.104 33.768002 40.007999 46.188 52.571999 58.824001 64.980003 68.267998 74.351997 77.748001 81.036003 87.192001 93.372002 99.755997 102.588 108.972 115.356 119.556 125.736 129.024 135.276 141.43201 144.72 148.884 155.03999 160.70399 167.088 170.48399 174.68401 180.76801 187.02 193.2 198.864 202.15199 208.40401 214.56 217.84801 223.93201 230.172 234.336 240.492 246.87601 253.12801 256.056 261.64801 267.73199 270.564 276.72 280.008 285.396 288.68399 294.84 301.01999 311.04001 317.28 323.436 327.63599 333.79199 340.17599 346.332 349.26001 355.34399 360.888">Corresponde al conjunto de resultados de aprendizaje y competencias </tspan></text>
<text
       id="text128"
       style="font-variant:normal;font-weight:normal;font-stretch:normal;font-size:12px;font-family:D-DIN-PRO;-inkscape-font-specification:D-DIN-PRO-Regular;writing-mode:lr-tb;fill:#231f20;fill-opacity:1;fill-rule:nonzero;stroke:none"
       transform="matrix(1,0,0,-1,85.0394,178.532)"><tspan
         id="tspan126"
         y="0"
         x="0 6.2399998 10.404 16.584 20.628 26.784 32.448002 35.375999 41.556 47.939999 54.023998 57.419998 63.576 69.239998 77.519997 81.683998 87.839996 91.884003 98.040001 102.204 105.132 111.384 117.564 123.228 131.508 137.592 140.98801 149.26801 159.28799 165.37199 171.756 177.912 180.744 186.924 195.20399 201.45599 207.612 215.892 225.912 232.06799 236.26801 242.448 248.7 254.88 260.54401 262.728 271.008 281.02802 287.18399 291.384 297.564 303.81601 309.996 313.392 319.57199 325.82401 328.75201 334.836 340.5 342.68399 350.96399 360.98401 367.164 373.41599 379.57199 382.96799 389.14801 394.81201 396.87601">profesionales referidos al manejo de métodos, metodologías, modelos, </tspan></text>
<text
       id="text132"
       style="font-variant:normal;font-weight:normal;font-stretch:normal;font-size:12px;font-family:D-DIN-PRO;-inkscape-font-specification:D-DIN-PRO-Regular;writing-mode:lr-tb;fill:#231f20;fill-opacity:1;fill-rule:nonzero;stroke:none"
       transform="matrix(1,0,0,-1,85.0394,160.532)"><tspan
         id="tspan130"
         y="0"
         x="0 6.2399998 10.404 16.584 20.784 26.964001 33.119999 39.299999 42.695999 48.875999 54.540001 56.723999 59.543999 65.783997 69.947998 76.127998 82.283997 88.440002 94.103996 100.284 105.948 108.768 114.156 116.976 123.216 127.38 133.56 139.716 145.87199 152.12399 155.052 165.07201 168 174.15601 180.53999 184.74001 190.92 196.584 199.40401 205.65601 211.812 214.632 220.78799 226.87199 231.036 237.12 243.276 247.476 253.632 257.79599 260.616 266.85599 271.01999 277.20001 281.24399 287.39999 293.064 295.992 302.172 308.556 314.64001 318.03601 320.85599 327.01199 329.832 332.76001 339.14401 344.53201 350.68799 356.35199 360.552 363.48001 369.73199 375.81601 380.01599 382.944 388.332 394.51199 396.84">protocolos, procesos y procedimientos de carácter profesional e investigativo; </tspan></text>
<text
       id="text136"
       style="font-variant:normal;font-weight:normal;font-stretch:normal;font-size:12px;font-family:D-DIN-PRO;-inkscape-font-specification:D-DIN-PRO-Regular;writing-mode:lr-tb;fill:#231f20;fill-opacity:1;fill-rule:nonzero;stroke:none"
       transform="matrix(1,0,0,-1,85.0394,142.532)"><tspan
         id="tspan134"
         y="0"
         x="0 2.832 9.2159996 15.6 19.799999 25.98 27.648001 33.731998 35.400002 38.796001 44.976002 50.639999 52.307999 57.695999 63.779999 67.176003 73.356003 77.519997 83.676003 89.339996 91.008003 96.396004 98.064003 104.304 108.468 111.396 117.78 123.936 126.864 133.104 136.032 142.21201 147.87601 149.54401 155.79601 161.952 168.336 172.536 176.7 182.88 184.548 190.8 196.95599 198.62399 205.008 211.392 213.06 219.216 225.60001 229.644 235.82401 242.076 248.46001 254.616 256.284 262.53601 268.69199 270.35999 276.612 282.76801 286.93201 293.08801 299.24399 305.62799 311.80801 317.47198 319.65601 321.32401 327.504 333.74399 339.40799 345.564 349.728 355.116 361.20001 367.35599 370.284 376.46399 382.84799 384.51599 390.76801 396.80399">junto a los valores y principios dentro de un enfoque de derechos, observación de </tspan></text>
<text
       id="text140"
       style="font-variant:normal;font-weight:normal;font-stretch:normal;font-size:12px;font-family:D-DIN-PRO;-inkscape-font-specification:D-DIN-PRO-Regular;writing-mode:lr-tb;fill:#231f20;fill-opacity:1;fill-rule:nonzero;stroke:none"
       transform="matrix(1,0,0,-1,85.0394,124.532)"><tspan
         id="tspan138"
         y="0"
         x="0 6.2399998 12.624 18.780001 25.164 31.247999 36.911999 39.216 45.456001 49.619999 55.703999 61.860001 66.059998 68.987999 75.143997 81.227997 86.891998 89.195999 95.279999 101.436 107.52 113.772 119.928 129.948 132.87601 139.032 145.116 150.78 153.084 158.472 160.776 168.216 175.78799 182.46001 184.644 186.948 189.87601 196.12801 202.51199 208.59599 211.992 218.244 224.328 230.58 232.76401 235.06799 237.996 244.38 248.58 254.73599 258.89999 265.056 271.44 274.836 279.03601 285.42001 289.58401 295.668 299.064 301.992 308.24399 314.328 320.57999 322.884 328.272 330.57599 336.81601 342.97198 349.35599 355.01999 361.104 371.12399 374.052 380.20801 386.59201 390.79199 396.85199">buenas prácticas académicas y ODS, igualdad, interculturalidad y pensamiento </tspan></text>
<path
       id="path142"
       style="fill:#253366;fill-opacity:1;fill-rule:nonzero;stroke:none"
       d="m 144.142,382.573 h 104.045 v 31.698 H 144.142 Z" /><text
       id="text146"
       style="font-variant:normal;font-weight:bold;font-stretch:normal;font-size:12.48019981px;font-family:D-DIN-PRO;-inkscape-font-specification:D-DIN-PRO-Bold;writing-mode:lr-tb;fill:#ffffff;fill-opacity:1;fill-rule:nonzero;stroke:none"
       transform="matrix(1,0,0,-1,160.2506,394.5446)"><tspan
         id="tspan144"
         y="0"
         x="0 4.3431096 7.0263524 9.8843184 17.372438 25.035282 32.398598 39.76067 43.018002 50.506123 58.168964 64.134499">1. CURRÍCULO</tspan></text>
<path
       id="path148"
       style="fill:#253366;fill-opacity:1;fill-rule:nonzero;stroke:none"
       d="m 278.941,487.525 h 133.032 v 21.293 H 278.941 Z" /><text
       id="text152"
       style="font-variant:normal;font-weight:500;font-stretch:normal;font-size:12.48019981px;font-family:D-DIN-PRO;-inkscape-font-specification:D-DIN-PRO-Medium;writing-mode:lr-tb;fill:#ffffff;fill-opacity:1;fill-rule:nonzero;stroke:none"
       transform="matrix(1,0,0,-1,300.1552,494.4306)"><tspan
         id="tspan150"
         y="0"
         x="0 4.1059856 6.5271444 9.2353477 16.436424 22.713964 26.919792 31.000816 33.921185 37.328278 40.03648 46.413864 52.691406 55.399609 61.677147 68.054527 72.260361 78.537895 84.303749">1. Perfil de egreso</tspan></text>
<path
       id="path154"
       style="fill:#253366;fill-opacity:1;fill-rule:nonzero;stroke:none"
       d="M 411.973,459.23 H 278.941 v 20.304 h 133.032 z" /><text
       id="text158"
       style="font-variant:normal;font-weight:500;font-stretch:normal;font-size:12.48019981px;font-family:D-DIN-PRO;-inkscape-font-specification:D-DIN-PRO-Medium;writing-mode:lr-tb;fill:#ffffff;fill-opacity:1;fill-rule:nonzero;stroke:none"
       transform="matrix(1,0,0,-1,290.1087,465.2732)"><tspan
         id="tspan156"
         y="0"
         x="0 5.8407335 8.2618923 10.970096 18.171171 22.376999 28.679499 34.158306 40.435848 46.71339 50.956657 57.259159 59.967361 66.244904 72.759567 76.965393 81.171219 84.091591 90.369125 96.883789 100.29089 106.49355">2. Proyecto curricular</tspan></text>
<path
       id="path160"
       style="fill:#253366;fill-opacity:1;fill-rule:nonzero;stroke:none"
       d="M 411.973,432.616 H 278.941 v 18.335 h 133.032 z" /><text
       id="text164"
       style="font-variant:normal;font-weight:500;font-stretch:normal;font-size:12.48019981px;font-family:D-DIN-PRO;-inkscape-font-specification:D-DIN-PRO-Medium;writing-mode:lr-tb;fill:#ffffff;fill-opacity:1;fill-rule:nonzero;stroke:none"
       transform="matrix(1,0,0,-1,297.2393,437.564)"><tspan
         id="tspan162"
         y="0"
         x="0 6.1776991 8.5988579 11.307061 20.704651 26.90731 30.314405 33.7215 39.92416 42.632362 48.909904 55.424568 59.630394 63.836224 66.756592 73.034134 79.548798 82.955887 89.158546">3. Malla curricular</tspan></text>
<path
       id="path166"
       style="fill:#253366;fill-opacity:1;fill-rule:nonzero;stroke:none"
       d="M 411.973,404.443 H 278.941 v 20.18 h 133.032 z" /><text
       id="text170"
       style="font-variant:normal;font-weight:500;font-stretch:normal;font-size:12.48019981px;font-family:D-DIN-PRO;-inkscape-font-specification:D-DIN-PRO-Medium;writing-mode:lr-tb;fill:#ffffff;fill-opacity:1;fill-rule:nonzero;stroke:none"
       transform="matrix(1,0,0,-1,316.2645,410.2346)"><tspan
         id="tspan168"
         y="0"
         x="0 6.2276196 8.6487789 11.356982 18.171171 23.649979 27.057074 30.464169 36.666828 43.031731 49.546394">4. Syllabus</tspan></text>
<path
       id="path172"
       style="fill:#253366;fill-opacity:1;fill-rule:nonzero;stroke:none"
       d="M 411.973,361.389 H 278.941 v 35.061 h 133.032 z" /><text
       id="text178"
       style="font-variant:normal;font-weight:500;font-stretch:normal;font-size:12.48019981px;font-family:D-DIN-PRO;-inkscape-font-specification:D-DIN-PRO-Medium;writing-mode:lr-tb;fill:#ffffff;fill-opacity:1;fill-rule:nonzero;stroke:none"
       transform="matrix(1,0,0,-1,284.5676,382.8933)"><tspan
         id="tspan174"
         y="0"
         x="0 6.0404167 8.4615755 11.169779 20.567369 26.84491 31.088179 37.390678 43.768063 50.070564 56.447945 59.368313 65.570969 68.279175 73.75798 76.466187 80.672012 86.949554 93.227097 99.74176 103.94759 109.71344 116.01594 121.78179">5. Metodogía y recursos </tspan><tspan
         id="tspan176"
         y="14.97624"
         x="23.275574 29.652956 35.930496 38.638699 44.841358 51.206261 55.412086 61.689629 68.204292 74.581673 77.502045 83.193016 89.395676 92.216194">de aprendizaje</tspan></text>
<path
       id="path180"
       style="fill:#253366;fill-opacity:1;fill-rule:nonzero;stroke:none"
       d="M 411.973,318.086 H 278.941 v 35.311 h 133.032 z" /><text
       id="text186"
       style="font-variant:normal;font-weight:500;font-stretch:normal;font-size:12.48019981px;font-family:D-DIN-PRO;-inkscape-font-specification:D-DIN-PRO-Medium;writing-mode:lr-tb;fill:#ffffff;fill-opacity:1;fill-rule:nonzero;stroke:none"
       transform="matrix(1,0,0,-1,303.5999,339.0086)"><tspan
         id="tspan182"
         y="0"
         x="0 6.1652188 8.5863771 11.294581 18.12125 23.887102 30.164644 36.442184 42.956848 49.159508 53.365334 56.285702 62.588203 68.354057 71.062256 77.439644 83.717178">6. Escenarios de </tspan><tspan
         id="tspan184"
         y="14.97624"
         x="-11.569145 -5.2042432 -0.99841601 5.2042432 11.481784 15.725052 18.645418 24.92296 31.125618 36.891472 39.599674 43.680698 49.9832 54.18903 64.485191 70.687851 74.931122 77.851486 83.330292 89.532951">prácticas formativas</tspan></text>
<path
       id="path188"
       style="fill:#253366;fill-opacity:1;fill-rule:nonzero;stroke:none"
       d="m 278.941,257.381 h 133.032 v 52.712 H 278.941 Z" /><text
       id="text196"
       style="font-variant:normal;font-weight:500;font-stretch:normal;font-size:12.48019981px;font-family:D-DIN-PRO;-inkscape-font-specification:D-DIN-PRO-Medium;writing-mode:lr-tb;fill:#ffffff;fill-opacity:1;fill-rule:nonzero;stroke:none"
       transform="matrix(1,0,0,-1,290.4828,294.5241)"><tspan
         id="tspan190"
         y="0"
         x="0 5.3789663 7.8001251 10.508328 15.525369 21.80291 28.08045 34.595116 40.897614 44.30471 50.607212 56.984592 59.904961 66.10762 71.873474 74.581673 80.946579 87.149239 91.355064 97.557724 100.26593 106.54346 109.95056">7. Tecnologías para el </tspan><tspan
         id="tspan192"
         y="14.97624"
         x="20.954256 27.156916 33.521816 37.727646 44.005184 50.519848 56.897232 59.8176 65.508568 71.711227 74.531754 80.809296 83.517502 88.996307">aprendizaje y </tspan><tspan
         id="tspan194"
         y="29.95248"
         x="4.5802336 10.857774 17.160275 23.67494 29.97744 36.254982 39.175346 49.471512 52.39188 58.669418 65.184082 69.427353 75.729851 78.438057 82.032356 87.086838 94.175591 101.78851">conocimiento (TAC)</tspan></text>
<g
       transform="translate(258.9344,496.5729)"
       id="g198"><path
         id="path200"
         style="fill:none;stroke:#253366;stroke-width:0.94499999;stroke-linecap:butt;stroke-linejoin:miter;stroke-miterlimit:10;stroke-dasharray:none;stroke-opacity:1"
         d="M 0,0 H 14.503" /></g><g
       id="g202"><g
         clip-path="url(#clipPath208)"
         id="g204"><g
           transform="translate(273.358,494.9739)"
           id="g210"><path
             id="path212"
             style="fill:#253366;fill-opacity:1;fill-rule:nonzero;stroke:none"
             d="M 0,0 C 0.883,0 1.599,0.716 1.599,1.599 1.599,2.482 0.883,3.198 0,3.198 -0.883,3.198 -1.599,2.482 -1.599,1.599 -1.599,0.716 -0.883,0 0,0" /></g><g
           transform="translate(258.9344,414.533)"
           id="g214"><path
             id="path216"
             style="fill:none;stroke:#253366;stroke-width:0.94499999;stroke-linecap:butt;stroke-linejoin:miter;stroke-miterlimit:10;stroke-dasharray:none;stroke-opacity:1"
             d="M 0,0 H 14.503" /></g><g
           transform="translate(273.358,412.9343)"
           id="g218"><path
             id="path220"
             style="fill:#253366;fill-opacity:1;fill-rule:nonzero;stroke:none"
             d="M 0,0 C 0.883,0 1.599,0.716 1.599,1.599 1.599,2.482 0.883,3.198 0,3.198 -0.883,3.198 -1.599,2.482 -1.599,1.599 -1.599,0.716 -0.883,0 0,0" /></g><g
           transform="translate(258.9344,441.7833)"
           id="g222"><path
             id="path224"
             style="fill:none;stroke:#253366;stroke-width:0.94499999;stroke-linecap:butt;stroke-linejoin:miter;stroke-miterlimit:10;stroke-dasharray:none;stroke-opacity:1"
             d="M 0,0 H 14.503" /></g><g
           transform="translate(273.358,440.1846)"
           id="g226"><path
             id="path228"
             style="fill:#253366;fill-opacity:1;fill-rule:nonzero;stroke:none"
             d="M 0,0 C 0.883,0 1.599,0.716 1.599,1.599 1.599,2.482 0.883,3.198 0,3.198 -0.883,3.198 -1.599,2.482 -1.599,1.599 -1.599,0.716 -0.883,0 0,0" /></g><g
           transform="translate(258.9344,469.3811)"
           id="g230"><path
             id="path232"
             style="fill:none;stroke:#253366;stroke-width:0.94499999;stroke-linecap:butt;stroke-linejoin:miter;stroke-miterlimit:10;stroke-dasharray:none;stroke-opacity:1"
             d="M 0,0 H 14.503" /></g><g
           transform="translate(273.358,467.7824)"
           id="g234"><path
             id="path236"
             style="fill:#253366;fill-opacity:1;fill-rule:nonzero;stroke:none"
             d="M 0,0 C 0.883,0 1.599,0.716 1.599,1.599 1.599,2.482 0.883,3.198 0,3.198 -0.883,3.198 -1.599,2.482 -1.599,1.599 -1.599,0.716 -0.883,0 0,0" /></g><g
           transform="translate(258.9344,378.1902)"
           id="g238"><path
             id="path240"
             style="fill:none;stroke:#253366;stroke-width:0.94499999;stroke-linecap:butt;stroke-linejoin:miter;stroke-miterlimit:10;stroke-dasharray:none;stroke-opacity:1"
             d="M 0,0 H 14.503" /></g><g
           transform="translate(273.358,376.5918)"
           id="g242"><path
             id="path244"
             style="fill:#253366;fill-opacity:1;fill-rule:nonzero;stroke:none"
             d="M 0,0 C 0.883,0 1.599,0.716 1.599,1.598 1.599,2.481 0.883,3.197 0,3.197 -0.883,3.197 -1.599,2.481 -1.599,1.598 -1.599,0.716 -0.883,0 0,0" /></g><g
           transform="translate(258.9344,335.6891)"
           id="g246"><path
             id="path248"
             style="fill:none;stroke:#253366;stroke-width:0.94499999;stroke-linecap:butt;stroke-linejoin:miter;stroke-miterlimit:10;stroke-dasharray:none;stroke-opacity:1"
             d="M 0,0 H 14.503" /></g><g
           transform="translate(273.358,334.0907)"
           id="g250"><path
             id="path252"
             style="fill:#253366;fill-opacity:1;fill-rule:nonzero;stroke:none"
             d="M 0,0 C 0.883,0 1.599,0.716 1.599,1.598 1.599,2.482 0.883,3.197 0,3.197 -0.883,3.197 -1.599,2.482 -1.599,1.598 -1.599,0.716 -0.883,0 0,0" /></g><g
           transform="translate(258.9344,281.3086)"
           id="g254"><path
             id="path256"
             style="fill:none;stroke:#253366;stroke-width:0.94499999;stroke-linecap:butt;stroke-linejoin:miter;stroke-miterlimit:10;stroke-dasharray:none;stroke-opacity:1"
             d="M 0,0 H 14.503" /></g><g
           transform="translate(273.358,279.7102)"
           id="g258"><path
             id="path260"
             style="fill:#253366;fill-opacity:1;fill-rule:nonzero;stroke:none"
             d="M 0,0 C 0.883,0 1.599,0.716 1.599,1.598 1.599,2.482 0.883,3.197 0,3.197 -0.883,3.197 -1.599,2.482 -1.599,1.598 -1.599,0.716 -0.883,0 0,0" /></g><g
           transform="translate(259.3629,496.5729)"
           id="g262"><path
             id="path264"
             style="fill:none;stroke:#253366;stroke-width:0.94499999;stroke-linecap:butt;stroke-linejoin:miter;stroke-miterlimit:10;stroke-dasharray:none;stroke-opacity:1"
             d="M 0,0 V -215.264" /></g><g
           transform="translate(251.789,398.4221)"
           id="g266"><path
             id="path268"
             style="fill:none;stroke:#253366;stroke-width:0.94499999;stroke-linecap:butt;stroke-linejoin:miter;stroke-miterlimit:10;stroke-dasharray:none;stroke-opacity:1"
             d="M 0,0 H 7.468" /></g></g></g></g></svg>